<?xml version="1.0" encoding="UTF-8"?>
<svg xmlns="http://www.w3.org/2000/svg" xmlns:xlink="http://www.w3.org/1999/xlink" xmlns:svgjs="http://svgjs.com/svgjs" version="1.1" width="512" height="512" x="0" y="0" viewBox="0 0 512 512" style="enable-background:new 0 0 512 512" xml:space="preserve" class="">
  <g>
    <g data-name="Flat final">
      <path fill="#70aa31" d="M445.767 223.331A76.324 76.324 0 0 0 304.736 165.7a58.514 58.514 0 0 0-85.1 35.054 76.671 76.671 0 1 0-20.342 150.6h238.438a64.261 64.261 0 0 0 8.035-128.018z" data-original="#a5ddf8" class="" opacity="1"/>
      <path fill="#70aa31" d="M121.663 288.362a98.076 98.076 0 1 1 62.88 22.807 97.868 97.868 0 0 1-62.88-22.807" data-original="#f9ae00" class="" opacity="1"/>
      <path fill="#dc9101" d="M369.088 345.429a76.323 76.323 0 0 0-141.03-57.629 58.515 58.515 0 0 0-85.1 35.055 76.671 76.671 0 1 0-20.342 150.6h238.438a64.261 64.261 0 0 0 8.034-128.018z" data-original="#80cdf6" class="" opacity="1"/>
    </g>
    <g data-name="Layer 2">
      <path d="M115.248 296.033a10 10 0 0 0 12.831-15.342A88.074 88.074 0 1 1 272.616 213.1a10 10 0 0 0 20 0 108.074 108.074 0 1 0-177.368 82.937zM184.543 82.108a10 10 0 0 0 10-10V38.553a10 10 0 0 0-20 0v33.555a10 10 0 0 0 10 10zM105.389 96a10 10 0 1 0 17.32-10l-16.777-29.06a10 10 0 0 0-17.321 10zM28.384 134.484l29.06 16.778a10 10 0 0 0 10-17.32l-29.06-16.778a10 10 0 1 0-10 17.32zM53.556 213.1a10 10 0 0 0-10-10H10a10 10 0 0 0 0 20h33.556a10 10 0 0 0 10-10zM67.444 292.25a10 10 0 0 0-10-17.321l-29.06 16.778a10 10 0 1 0 10 17.32zM250.037 99.657A9.994 9.994 0 0 0 263.7 96l16.777-29.06a10 10 0 0 0-17.32-10L246.376 86a10 10 0 0 0 3.661 13.657z" fill="#000000" data-original="#000000" class=""/>
      <path d="M381.456 337.77a86.313 86.313 0 0 0-157.579-62.97 68.513 68.513 0 0 0-87.346 36.437 86.668 86.668 0 1 0-13.911 172.21h238.434a74.267 74.267 0 0 0 20.4-145.677zm-20.4 125.677H122.62a66.664 66.664 0 1 1 17.694-130.953 10 10 0 0 0 12.273-6.93 48.513 48.513 0 0 1 70.545-29.064 10 10 0 0 0 13.928-4.349 66.326 66.326 0 0 1 122.555 50.076 10 10 0 0 0 8.234 13.125 54.261 54.261 0 0 1-6.8 108.1z" fill="#000000" data-original="#000000" class=""/>
      <path d="M458.134 215.671a86.322 86.322 0 0 0-162.4-54.328 10 10 0 1 0 18 8.709 66.326 66.326 0 0 1 122.555 50.076 10 10 0 0 0 8.235 13.125 54.261 54.261 0 0 1-6.8 108.1 10 10 0 0 0 0 20 74.268 74.268 0 0 0 20.4-145.678z" fill="#000000" data-original="#000000" class=""/>
    </g>
  </g>
</svg>
