<?xml version="1.0" encoding="UTF-8"?>
<svg xmlns="http://www.w3.org/2000/svg" xmlns:xlink="http://www.w3.org/1999/xlink" xmlns:svgjs="http://svgjs.com/svgjs" version="1.1" width="512" height="512" x="0" y="0" viewBox="0 0 512 512" style="enable-background:new 0 0 512 512" xml:space="preserve" class="">
  <g>
    <circle cx="381.7" cy="66.7" r="66.7" fill="#0773bb" data-original="#000000" class=""/>
    <path d="m351.5 387.3-28.1-110.2c-5-19.6-22.7-33.4-43-33.4h-48.8c-20.3 0-38 13.8-43 33.4l-28.1 110.2c-4.2 16.4 8.2 32.3 25.1 32.3h21.1v70.2c0 12.2 9.9 22.2 22.2 22.2h54.3c12.2 0 22.2-9.9 22.2-22.2v-70.2h21.1c16.8 0 29.2-15.9 25-32.3z" fill="#0773bb" data-original="#000000" class=""/>
    <circle cx="256" cy="182.8" r="49.3" fill="#0773bb" data-original="#000000" class=""/>
    <path d="m510.9 343.4-38-149.1c-6.8-26.6-30.7-45.2-58.1-45.2h-66c-10.3 0-20 2.6-28.6 7.3 3.4 8.1 5.2 17 5.2 26.4 0 18-6.9 34.4-18.2 46.8 17.3 7.9 30.7 23.3 35.6 42.6l21.8 85.5 6.3 24.7c.4 1.5.7 3.1.9 4.6 1.9 12.4-1.4 24.8-9.2 34.8-8.7 11.3-22 17.7-36.2 17.7h-1.1v50.2c0 4.5-.7 8.8-2 12.9 5.4 5.7 13.2 9.3 21.7 9.3h73.5c16.6 0 30-13.4 30-30v-95H477c22.8.1 39.5-21.4 33.9-43.5zM141.1 382.4l6.3-24.7 21.8-85.5c4.9-19.4 18.3-34.7 35.6-42.6a69.06 69.06 0 0 1-18.2-46.8c0-9.3 1.8-18.2 5.2-26.4-8.6-4.7-18.3-7.3-28.6-7.3h-66c-27.4 0-51.4 18.6-58.1 45.2l-38 149.1C-4.5 365.5 12.2 387 35 387h28.5v95c0 16.6 13.4 30 30 30H167c8.5 0 16.2-3.6 21.7-9.3-1.3-4.1-2-8.4-2-12.9v-50.2h-1.1c-14.3 0-27.5-6.5-36.2-17.7-7.8-10-11-22.5-9.2-34.8.2-1.6.5-3.2.9-4.7z" fill="#0773bb" data-original="#000000" class=""/>
    <circle cx="130.3" cy="66.7" r="66.7" transform="rotate(-89.89 130.276 66.725)" fill="#0773bb" data-original="#000000" class=""/>
  </g>
</svg>
