<?xml version="1.0" encoding="UTF-8"?>
<svg xmlns="http://www.w3.org/2000/svg" xmlns:xlink="http://www.w3.org/1999/xlink" xmlns:svgjs="http://svgjs.com/svgjs" version="1.1" width="512" height="512" x="0" y="0" viewBox="0 0 32 32" style="enable-background:new 0 0 512 512" xml:space="preserve" class="">
  <g>
    <path d="M19.733 3.2v2.133c0 .59-.477 1.067-1.066 1.067H8c-.59 0-1.067-.478-1.067-1.067V3.2c0-.59.478-1.067 1.067-1.067h3.2v-.192C11.2.87 12.07 0 13.141 0h.384c1.072 0 1.942.87 1.942 1.941v.192h3.2c.589 0 1.066.478 1.066 1.067z" fill="#0773bb" data-original="#000000" class=""/>
    <path d="M21.867 4.267v1.066c0 1.76-1.44 3.2-3.2 3.2H8a3.21 3.21 0 0 1-3.2-3.2V4.267A2.14 2.14 0 0 0 2.667 6.4v21.333A2.14 2.14 0 0 0 4.8 29.867h12.459a7.335 7.335 0 0 1-.726-3.2c0-1.59.491-3.062 1.344-4.267H6.933c-.586 0-1.066-.48-1.066-1.067s.48-1.067 1.066-1.067h11.734c.352 0 .66.171.853.438A7.38 7.38 0 0 1 24 19.2V6.4a2.14 2.14 0 0 0-2.133-2.133zM6.933 24.533h8.534c.586 0 1.066.48 1.066 1.067s-.48 1.067-1.066 1.067H6.933c-.586 0-1.066-.48-1.066-1.067s.48-1.067 1.066-1.067zm12.8-6.4h-12.8c-.586 0-1.066-.48-1.066-1.066S6.347 16 6.933 16h12.8c.587 0 1.067.48 1.067 1.067s-.48 1.066-1.067 1.066zm0-4.266h-12.8c-.586 0-1.066-.48-1.066-1.067s.48-1.067 1.066-1.067h12.8c.587 0 1.067.48 1.067 1.067s-.48 1.067-1.067 1.067z" fill="#0773bb" data-original="#000000" class=""/>
    <path d="M27.776 22.89a5.357 5.357 0 0 0-7.552 0 5.356 5.356 0 0 0-1.557 3.777A5.335 5.335 0 0 0 24 32a5.356 5.356 0 0 0 3.776-1.557 5.356 5.356 0 0 0 0-7.552zm-1.643 4.843h-1.066V28.8c0 .587-.48 1.067-1.067 1.067s-1.067-.48-1.067-1.067v-1.067h-1.067c-.586 0-1.066-.48-1.066-1.066s.48-1.067 1.066-1.067h1.067v-1.067c0-.587.48-1.067 1.067-1.067s1.067.48 1.067 1.067V25.6h1.066c.587 0 1.067.48 1.067 1.067s-.48 1.066-1.067 1.066z" fill="#0773bb" data-original="#000000" class=""/>
  </g>
</svg>
