<?xml version="1.0" encoding="UTF-8"?>
<svg xmlns="http://www.w3.org/2000/svg" xmlns:xlink="http://www.w3.org/1999/xlink" xmlns:svgjs="http://svgjs.com/svgjs" version="1.1" width="512" height="512" x="0" y="0" viewBox="0 0 512 512" style="enable-background:new 0 0 512 512" xml:space="preserve" class="">
  <g>
    <path d="M305.316 98.488c0-3.761-1.433-7.383-4.015-10.125L222.51 4.648A14.786 14.786 0 0 0 211.755 0h-4.926v103.414h98.488zm0 0" fill="#0773bb" data-original="#000000" class=""/>
    <path d="M290.398 290.543c5.059 0 10.043.469 14.918 1.344V132.96H192.055c-8.16 0-14.774-6.613-14.774-14.773V0H14.773C6.613 0 0 6.613 0 14.773v379.184c0 8.16 6.613 14.773 14.773 14.773h124.254a83.784 83.784 0 0 1 8.602-10.093l83.574-83.57c15.813-15.813 36.836-24.524 59.195-24.524zM123.113 172.355h14.774v-14.773c0-8.156 6.613-14.773 14.773-14.773s14.774 6.617 14.774 14.773v14.773h14.773c8.156 0 14.773 6.618 14.773 14.774 0 8.16-6.617 14.773-14.773 14.773h-14.773v14.774c0 8.16-6.614 14.773-14.774 14.773s-14.773-6.613-14.773-14.773v-14.774h-14.774c-8.16 0-14.773-6.613-14.773-14.773 0-8.156 6.613-14.774 14.773-14.774zm-49.246 88.641H231.45c8.16 0 14.774 6.617 14.774 14.774 0 8.16-6.614 14.773-14.774 14.773H73.867c-8.156 0-14.773-6.613-14.773-14.773 0-8.157 6.617-14.774 14.773-14.774zm98.488 88.64H73.867c-8.156 0-14.773-6.613-14.773-14.773s6.617-14.773 14.773-14.773h98.488c8.16 0 14.774 6.613 14.774 14.773s-6.613 14.774-14.774 14.774zM168.523 419.527c-21.12 21.121-21.12 55.485 0 76.606C178.753 506.367 192.36 512 206.828 512s28.07-5.633 38.305-15.867l31.336-31.336-76.606-76.61zM328.703 335.957c-10.23-10.23-23.836-15.867-38.305-15.867s-28.07 5.637-38.3 15.867l-31.34 31.34 76.605 76.605 31.34-31.34c21.121-21.12 21.121-55.484 0-76.605zm0 0" fill="#0773bb" data-original="#000000" class=""/>
  </g>
</svg>
